<svg width="10" height="10" viewBox="0 0 10 10" fill="none" xmlns="http://www.w3.org/2000/svg">
<path d="M0 5.00888C0 4.10302 0.226465 3.26377 0.674956 2.49556C1.12345 1.72735 1.73179 1.11901 2.5 0.670515C3.26821 0.222025 4.10302 0 5.00444 0C5.6794 0 6.32771 0.133215 6.94494 0.395204C7.56217 0.657193 8.09059 1.01687 8.53908 1.46092C8.98757 1.90497 9.34281 2.43783 9.6048 3.0595C9.86679 3.68117 10 4.32504 10 5.00888C10 5.68384 9.86679 6.33215 9.6048 6.94938C9.34281 7.56661 8.98313 8.09947 8.53908 8.54352C8.09503 8.98757 7.56217 9.34281 6.94494 9.6048C6.32771 9.86678 5.68384 10 5.00444 10C4.32504 10 3.67229 9.86678 3.05506 9.6048C2.43783 9.34281 1.90497 8.98313 1.45648 8.53908C1.00799 8.09503 0.657194 7.56217 0.390764 6.94938C0.124334 6.33659 0 5.68828 0 5.00888ZM1.10124 5.00888C1.10124 6.06128 1.48313 6.97602 2.25133 7.75311C3.01954 8.52131 3.93428 8.9032 5.00444 8.9032C5.70604 8.9032 6.35879 8.73002 6.95382 8.37922C7.54885 8.02842 8.02842 7.55773 8.37922 6.95826C8.73002 6.35879 8.90764 5.71048 8.90764 5.00888C8.90764 4.30728 8.73002 3.65453 8.37922 3.05506C8.02842 2.45559 7.55329 1.98046 6.95382 1.62966C6.35435 1.27886 5.70604 1.10568 5.00444 1.10568C4.30284 1.10568 3.65009 1.27886 3.05506 1.62966C2.46004 1.98046 1.98046 2.45559 1.62522 3.05506C1.26998 3.65453 1.10124 4.30728 1.10124 5.00888ZM4.61812 5.00888V2.05151C4.61812 1.94938 4.65364 1.86057 4.72469 1.78952C4.79574 1.71847 4.88455 1.68295 4.98668 1.68295C5.08881 1.68295 5.17762 1.71847 5.24867 1.78952C5.31972 1.86057 5.35524 1.94938 5.35524 2.05151V4.78242L6.94938 5.71048C7.03819 5.76376 7.09147 5.83925 7.11812 5.93694C7.14476 6.03464 7.13144 6.12789 7.07815 6.21226C7.0071 6.33659 6.90053 6.39876 6.75844 6.39876C6.68295 6.39876 6.62078 6.38099 6.57194 6.34547L4.87567 5.35524C4.80018 5.33304 4.73801 5.28863 4.68917 5.22647C4.64032 5.1643 4.61812 5.09325 4.61812 5.00888Z" fill="black"/>
</svg>
