<svg width="90" height="71" viewBox="0 0 90 71" fill="none" xmlns="http://www.w3.org/2000/svg">
<path d="M0 53.5379C0 56.5513 0.736607 59.3304 2.20982 61.875C3.68304 64.4196 5.69196 66.4286 8.23661 67.9018C10.7812 69.375 13.5268 70.1116 16.5067 70.1116H52.7679C55.7478 70.1116 58.5268 69.375 61.0714 67.9018C63.6161 66.4286 65.6585 64.4196 67.1317 61.875C68.6049 59.3304 69.375 56.5513 69.375 53.5379C69.375 51.3281 68.9063 49.0848 67.9688 46.8415C70.5134 43.7612 71.7857 40.0446 71.7857 35.7924C71.7857 33.4152 71.317 31.1384 70.4129 28.9621C69.5089 26.7857 68.2366 24.9442 66.6629 23.3705C65.0893 21.7969 63.2478 20.5246 61.0714 19.6205C58.8951 18.683 56.6183 18.2478 54.2411 18.2478C49.2857 18.2478 44.9665 20.1897 41.25 24.0737C38.6719 22.6004 35.6585 21.8638 32.2098 21.8638C27.4888 21.8638 23.3371 23.3371 19.721 26.25C16.1049 29.1629 13.7612 32.9129 12.7567 37.4665C9.0067 38.3371 5.95982 40.2455 3.58259 43.2589C1.20536 46.2723 0 49.6875 0 53.5379ZM5.72545 53.5379C5.72545 50.7254 6.66295 48.3147 8.53795 46.2723C10.4129 44.2299 12.7567 43.058 15.5692 42.7232L17.2433 42.6228C17.6451 42.6228 17.8795 42.4219 17.8795 42.0201L18.1138 40.2121C18.5826 36.596 20.1562 33.5491 22.8348 31.1384C25.5134 28.6942 28.6607 27.4888 32.2433 27.4888C35.9263 27.4888 39.1406 28.7277 41.8527 31.1719C44.5982 33.6161 46.1049 36.6295 46.4397 40.2455L46.6741 42.1875C46.7411 42.5558 46.9754 42.7567 47.3772 42.7567H52.7679C55.7143 42.7567 58.2589 43.8281 60.4018 45.971C62.5446 48.1138 63.6161 50.625 63.6161 53.5714C63.6161 56.6183 62.5446 59.1964 60.4353 61.3393C58.3259 63.4821 55.7478 64.5536 52.8013 64.5536H16.5067C13.5603 64.5536 11.0491 63.4821 8.90625 61.3058C6.79687 59.1295 5.72545 56.5513 5.72545 53.5379ZM28.1585 12.4554C28.1585 13.2589 28.4263 13.9621 28.9621 14.5647L31.1719 16.7076C32.0089 17.3438 32.7121 17.6116 33.3147 17.5446C34.0179 17.5446 34.6205 17.2433 35.1562 16.6741C35.692 16.1049 35.9598 15.4018 35.9598 14.5982C35.9598 13.7946 35.6585 13.125 35.0893 12.6228L33.1138 10.4129C32.5112 9.87723 31.8415 9.60937 31.0714 9.60937C30.2679 9.60937 29.5647 9.87723 28.9955 10.4464C28.4263 10.9821 28.1585 11.6518 28.1585 12.4554ZM46.0379 27.2879C48.3482 25.0446 51.0938 23.9397 54.2411 23.9397C57.5558 23.9397 60.3683 25.0781 62.6786 27.3884C64.9888 29.6987 66.1607 32.4777 66.1607 35.7924C66.1607 37.8683 65.5915 39.9442 64.4531 41.9531C61.2054 38.7388 57.3214 37.1317 52.7679 37.1317H51.6964C50.8594 33.4821 48.9844 30.2009 46.0379 27.2879ZM51.4955 9.60937C51.4955 10.4799 51.7634 11.1496 52.2656 11.6853C52.7679 12.221 53.4375 12.4554 54.2411 12.4554C55.1116 12.4554 55.7812 12.1875 56.317 11.6853C56.8527 11.1496 57.0871 10.4799 57.0871 9.60937V2.74554C57.0871 1.94196 56.8192 1.3058 56.2835 0.770089C55.7478 0.234375 55.0781 0 54.2411 0C53.4375 0 52.8013 0.267857 52.2656 0.770089C51.7299 1.27232 51.4955 1.94196 51.4955 2.74554V9.60937ZM69.9777 17.2768C69.9777 18.1473 70.2121 18.817 70.7143 19.3527C71.4174 19.8884 72.1205 20.1563 72.7902 20.1563C73.3929 20.1563 74.0625 19.8884 74.7656 19.3527L79.5536 14.5647C80.0893 13.9621 80.3571 13.2589 80.3571 12.4219C80.3571 11.6183 80.0893 10.9487 79.5536 10.4129C79.0179 9.87723 78.3482 9.60937 77.5781 9.60937C76.7746 9.60937 76.1384 9.87723 75.6362 10.4129L70.7143 15.2009C70.2121 15.8371 69.9777 16.5067 69.9777 17.2768ZM72.6228 56.9196C72.6228 57.7232 72.8906 58.4263 73.4598 59.029L75.6362 61.1384C76.1384 61.6741 76.7746 61.942 77.5781 61.942C78.3817 61.942 79.0513 61.6741 79.5871 61.1049C80.1228 60.5357 80.3906 59.8661 80.3906 59.029C80.3906 58.2924 80.1228 57.6228 79.5871 57.0871L77.4107 54.9107C76.875 54.375 76.2388 54.1071 75.5022 54.1071C74.6987 54.1071 74.029 54.375 73.4933 54.9107C72.9241 55.4464 72.6228 56.1161 72.6228 56.9196ZM77.5446 35.7924C77.5446 36.5625 77.846 37.1987 78.4152 37.7344C78.9509 38.2701 79.654 38.5379 80.4576 38.5379H87.2879C88.058 38.5379 88.6942 38.2701 89.2299 37.7679C89.7656 37.2656 90 36.596 90 35.7924C90 34.9888 89.7321 34.3192 89.2299 33.7835C88.7277 33.2478 88.058 32.9464 87.2879 32.9464H80.4576C79.654 32.9464 78.9844 33.2143 78.4152 33.7835C77.8125 34.3527 77.5446 35.0223 77.5446 35.7924Z" fill="white"/>
</svg>
