<svg width="40" height="28" viewBox="0 0 40 28" fill="none" xmlns="http://www.w3.org/2000/svg">
<path d="M0 18.2676C0 16.0539 0.692974 14.0905 2.07892 12.358C3.46487 10.6256 5.21656 9.50914 7.35323 9.02791C7.94995 6.39076 9.31665 4.23484 11.4148 2.54091C13.513 0.846969 15.9384 0 18.6526 0C21.309 0 23.6766 0.827719 25.7555 2.46391C27.8345 4.1001 29.1819 6.21752 29.7979 8.79692H30.4331C32.1655 8.79692 33.7632 9.2204 35.2262 10.0481C36.6891 10.8758 37.8633 12.0308 38.7103 13.4937C39.5573 14.9567 40 16.5351 40 18.2676C40 19.9615 39.5958 21.5399 38.7873 22.9836C37.9788 24.4273 36.8624 25.5823 35.4572 26.4485C34.052 27.3147 32.4928 27.7767 30.8181 27.8345H9.23965C6.66025 27.719 4.48508 26.7372 2.6949 24.8893C0.904716 23.0606 0 20.847 0 18.2676ZM3.29163 18.2676C3.29163 19.9423 3.8691 21.386 5.02406 22.6179C6.17902 23.8499 7.58422 24.5043 9.23965 24.6006H30.7796C32.435 24.5236 33.8402 23.8499 34.9952 22.6179C36.1694 21.386 36.7469 19.923 36.7469 18.2676C36.7469 16.5736 36.1116 15.1299 34.8604 13.898C33.6092 12.666 32.127 12.05 30.3946 12.05H27.3147C27.103 12.05 26.9875 11.9346 26.9875 11.7036L26.8527 10.6064C26.641 8.52743 25.7363 6.77575 24.1578 5.37055C22.5794 3.96535 20.7507 3.25313 18.6526 3.25313C16.5544 3.25313 14.7064 3.96535 13.1665 5.37055C11.6073 6.77575 10.7218 8.52743 10.5294 10.6064L10.3754 11.7036C10.3754 11.9346 10.2406 12.05 9.99038 12.05H8.97017C7.35323 12.2425 6.00577 12.9355 4.92782 14.1097C3.84986 15.2839 3.29163 16.6699 3.29163 18.2676Z" fill="black"/>
</svg>
